<?xml version="1.0" encoding="UTF-8" standalone="no"?>
<svg
   xmlns:dc="http://purl.org/dc/elements/1.1/"
   xmlns:cc="http://creativecommons.org/ns#"
   xmlns:rdf="http://www.w3.org/1999/02/22-rdf-syntax-ns#"
   xmlns:svg="http://www.w3.org/2000/svg"
   xmlns="http://www.w3.org/2000/svg"
   xmlns:sodipodi="http://sodipodi.sourceforge.net/DTD/sodipodi-0.dtd"
   xmlns:inkscape="http://www.inkscape.org/namespaces/inkscape"
   version="1.1"
   id="a784f9ec-514c-4fc3-96f0-381321b45ba7"
   x="0px"
   y="0px"
   viewBox="0 0 70 67.962645"
   xml:space="preserve"
   sodipodi:docname="iota-miota-logo-white-small.svg"
   width="70"
   height="67.962646"
   inkscape:version="1.0.2 (1.0.2+r75+1)"><metadata
   id="metadata13"><rdf:RDF><cc:Work
       rdf:about=""><dc:format>image/svg+xml</dc:format><dc:type
         rdf:resource="http://purl.org/dc/dcmitype/StillImage" /><dc:title></dc:title></cc:Work></rdf:RDF></metadata><defs
   id="defs11" /><sodipodi:namedview
   pagecolor="#ffffff"
   bordercolor="#666666"
   borderopacity="1"
   objecttolerance="10"
   gridtolerance="10"
   guidetolerance="10"
   inkscape:pageopacity="0"
   inkscape:pageshadow="2"
   inkscape:window-width="1853"
   inkscape:window-height="1022"
   id="namedview9"
   showgrid="false"
   inkscape:zoom="3.1509298"
   inkscape:cx="4.940015"
   inkscape:cy="47.965362"
   inkscape:window-x="1987"
   inkscape:window-y="30"
   inkscape:window-maximized="1"
   inkscape:current-layer="a784f9ec-514c-4fc3-96f0-381321b45ba7" />
<style
   type="text/css"
   id="style2">
	.st0{fill:#FFFFFF;}
</style>
<g
   id="e22bc87e-38d0-4836-bab6-9e7d92d0d30d"
   transform="matrix(0.97222222,0,0,0.97222222,0,0.00431682)">
	<g
   id="acef1848-c7d7-4d77-926a-6daa95fc8054">
		<path
   class="st0"
   d="m 52.4,8.3 c 2.2,0 4,-1.8 4,-4 C 56.5,2 54.8,0.1 52.6,0 c -2.2,-0.1 -4.1,1.5 -4.2,3.7 0,0.2 0,0.3 0,0.5 0,2.2 1.8,4 4,4.1 z m 1.2,10.5 c 1.9,0 3.4,-1.5 3.4,-3.4 0,0 0,0 0,0 v 0 c 0,-1.9 -1.6,-3.3 -3.4,-3.3 -1.8,0 -3.3,1.6 -3.3,3.4 -0.1,1.8 1.4,3.3 3.3,3.3 z m 9.2,1.3 c 1.9,0 3.4,-1.5 3.5,-3.4 0,-1.9 -1.5,-3.4 -3.4,-3.5 -1.9,-0.1 -3.4,1.5 -3.5,3.4 0,0 0,0 0,0 0,2 1.5,3.5 3.4,3.5 z m -1.1,9 c 1.6,0 2.9,-1.3 2.9,-2.9 0,-1.6 -1.3,-2.9 -2.9,-2.9 -1.6,0 -2.9,1.3 -2.9,2.9 0,1.6 1.3,2.9 2.9,2.9 z m 7.4,2.9 c 1.6,0 2.9,-1.3 2.9,-2.9 0,-1.6 -1.3,-2.9 -2.9,-2.9 -1.6,0 -2.9,1.3 -2.9,2.9 v 0 c 0,1.6 1.3,2.9 2.9,2.9 0,0 0,0 0,0 z M 52.4,27.9 c 1.6,0 3,-1.3 3,-3 0,0 0,0 0,0 v 0 c 0,-1.6 -1.4,-2.9 -3,-2.9 -1.6,0 -2.9,1.4 -2.9,3 0,1.6 1.3,2.9 2.9,2.9 z m -2.7,7.2 c 1.4,0 2.5,-1.1 2.5,-2.5 0,-1.4 -1.1,-2.5 -2.5,-2.5 v 0 c -1.4,0 -2.5,1.1 -2.5,2.5 0,1.4 1.1,2.5 2.5,2.5 z m 9.3,1.2 c 1.4,0 2.5,-1.1 2.4,-2.5 0,0 0,0 0,0 v 0 c 0,-1.4 -1.1,-2.4 -2.5,-2.4 -1.4,0 -2.4,1.1 -2.4,2.5 0.1,1.4 1.1,2.4 2.5,2.4 z m 7.4,2.9 c 1.4,0 2.5,-1.1 2.6,-2.5 0,-1.4 -1.1,-2.5 -2.5,-2.6 -1.4,0 -2.5,1.1 -2.6,2.5 0,0 0,0 0,0.1 0,1.4 1.1,2.5 2.5,2.5 0,0 0,0 0,0 z m -3.7,5.5 c 1.2,0 2.1,-0.9 2.1,-2.1 0,-1.2 -0.9,-2.1 -2.1,-2.1 -1.2,0 -2.1,0.9 -2.1,2.1 0,1.1 1,2 2.1,2.1 0,-0.1 0,-0.1 0,0 z m -7.4,-2.9 c 1.2,-0.1 2,-1.2 1.9,-2.4 -0.1,-1 -0.9,-1.8 -1.9,-1.9 -1.2,0 -2.1,1 -2.1,2.2 0,0 0,0 0,0 0,1.1 0.9,2.1 2.1,2.1 z m -9.2,-1.3 c 1.2,0 2.2,-1 2.2,-2.2 0,-1.2 -1,-2.2 -2.2,-2.2 v 0 c -1.2,0 -2.2,1 -2.2,2.2 0,1.2 1,2.2 2.2,2.2 z m 5.2,5.1 c 1,-0.1 1.8,-1 1.7,-2 -0.1,-0.9 -0.8,-1.6 -1.7,-1.7 v 0 c -1,0.1 -1.8,1 -1.7,2 0,0.9 0.7,1.6 1.7,1.7 z m 7.4,2.9 c 1,0 1.9,-0.8 1.9,-1.9 0,-1.1 -0.8,-1.9 -1.9,-1.9 -1,0 -1.9,0.8 -1.9,1.9 0,1 0.8,1.8 1.9,1.9 z m -4.3,2.1 c 0.8,0 1.4,-0.6 1.4,-1.4 0,-0.8 -0.6,-1.4 -1.4,-1.4 -0.8,0 -1.4,0.6 -1.4,1.4 0,0.7 0.6,1.4 1.4,1.4 z m -4,1.2 c 0.7,0 1.3,-0.6 1.3,-1.3 v 0 c 0.1,-0.7 -0.5,-1.4 -1.2,-1.5 -0.7,-0.1 -1.4,0.5 -1.5,1.2 0,0.1 0,0.2 0,0.3 v 0 c 0.1,0.7 0.7,1.3 1.4,1.3 0,0 0,0 0,0 z m -3.5,-3.9 c 0.9,0 1.6,-0.7 1.6,-1.6 0,-0.9 -0.7,-1.6 -1.6,-1.6 -0.9,0 -1.6,0.7 -1.6,1.6 0,0 0,0 0,0 0.1,0.9 0.8,1.6 1.6,1.6 0.1,0 0.1,0 0,0 z m -5,-3.6 c 1,0 1.9,-0.8 1.9,-1.8 0,-1 -0.8,-1.9 -1.8,-1.9 -1,0 -1.9,0.8 -1.9,1.8 0,0 0,0 0,0 -0.1,1 0.7,1.9 1.8,1.9 0,0 0,0 0,0 z M 57,67.6 c 2.2,0 4.1,-1.7 4.1,-4 0,-2.2 -1.7,-4.1 -4,-4.1 -2.2,0 -4.1,1.7 -4.1,4 0,0 0,0 0,0 0,2.2 1.8,4 4,4.1 0,0 0,0 0,0 z M 46.9,62.5 c 1.9,0 3.4,-1.4 3.4,-3.3 0,-1.9 -1.4,-3.4 -3.3,-3.4 -1.9,0 -3.4,1.4 -3.4,3.3 0,0 0,0.1 0,0.1 0.1,1.8 1.5,3.3 3.3,3.3 z m -5.7,7.4 c 1.9,0 3.4,-1.5 3.4,-3.3 0,-1.8 -1.5,-3.4 -3.3,-3.4 -1.9,0 -3.4,1.5 -3.4,3.3 0,0 0,0 0,0.1 -0.1,1.7 1.4,3.3 3.3,3.3 0,0 0,0 0,0 z M 39.5,56.3 c 1.6,0 2.9,-1.3 2.9,-2.9 v 0 c 0,-1.6 -1.3,-2.9 -2.9,-2.9 v 0 c -1.6,0 -2.9,1.3 -2.9,2.9 v 0 c 0,1.6 1.3,2.9 2.9,2.9 z m -5.8,7.5 c 1.6,0 2.9,-1.3 2.9,-2.9 0,-1.6 -1.3,-2.9 -2.9,-2.9 -1.6,0 -2.9,1.3 -2.9,2.9 0,1.6 1.3,2.9 2.9,2.9 z m -6.2,5.1 c 1.6,0 2.9,-1.3 2.9,-2.9 0,-1.6 -1.3,-2.9 -2.9,-2.9 -1.6,0 -2.9,1.3 -2.9,2.9 0,1.6 1.3,2.9 2.9,2.9 z m -5.1,-6.7 c 1.4,0 2.5,-1.1 2.5,-2.4 0,-1.4 -1.1,-2.5 -2.4,-2.5 -1.4,0 -2.5,1.1 -2.5,2.4 0,0 0,0.1 0,0.1 0,1.3 1,2.4 2.4,2.4 z m 6.2,-5 c 1.4,0 2.5,-1.1 2.5,-2.5 0,-1.4 -1.1,-2.5 -2.5,-2.5 -1.4,0 -2.5,1.1 -2.5,2.5 0,0 0,0 0,0.1 0,1.2 1.1,2.3 2.5,2.4 z m 5.8,-7.5 c 1.4,0 2.5,-1.1 2.4,-2.5 0,0 0,0 0,0 v 0 c 0,-1.4 -1.1,-2.4 -2.4,-2.4 -1.4,0 -2.4,1.1 -2.4,2.4 0,0 0,0 0,0 v 0 c -0.1,1.4 1,2.5 2.4,2.5 0,0 0,0 0,0 z m -8.9,1 c 1.2,0 2.2,-0.9 2.2,-2.1 0,-1.2 -0.9,-2.2 -2.1,-2.2 -1.2,0 -2.2,0.9 -2.2,2.1 0,0 0,0 0,0 0,1.2 0.9,2.2 2.1,2.2 0,0 0,0 0,0 z m -6.2,5.1 c 1.2,0 2.1,-1 2.1,-2.1 0,0 0,0 0,0 v 0 c 0,-1.2 -0.9,-2.1 -2.1,-2.1 0,0 0,0 0,0 v 0 c -1.1,0 -2.1,1 -2.1,2.1 v 0 c 0.1,1.1 1,2.1 2.1,2.1 0.1,0 0.1,0 0,0 z m -1.4,-6 c 1,0 1.9,-0.8 1.9,-1.8 0,-1 -0.8,-1.9 -1.8,-1.9 -1,0 -1.9,0.8 -1.9,1.8 0,0 0,0 0,0 0,1.1 0.8,1.9 1.8,1.9 0,0 0,0 0,0 z m 0,-5.2 c 0.9,0 1.6,-0.7 1.6,-1.6 0,0 0,0 0,0 v 0 c 0,-0.9 -0.7,-1.6 -1.6,-1.6 -0.9,0 -1.6,0.7 -1.6,1.6 0,0.9 0.7,1.6 1.6,1.6 z m 0.9,-4.3 c 0.7,0 1.4,-0.6 1.4,-1.3 0,-0.7 -0.6,-1.4 -1.3,-1.4 -0.7,0 -1.4,0.6 -1.4,1.3 0,0 0,0 0,0 -0.1,0.8 0.5,1.4 1.3,1.4 z m 5.3,-0.7 c 0.9,0 1.6,-0.7 1.6,-1.6 0,-0.9 -0.7,-1.6 -1.6,-1.6 -0.9,0 -1.6,0.7 -1.6,1.6 0,0 0,0 0,0 0,0.8 0.7,1.6 1.6,1.6 z m 5.8,-2.3 c 1,-0.1 1.8,-1 1.7,-2 -0.1,-0.9 -0.8,-1.6 -1.7,-1.7 v 0 c -1,0.1 -1.8,1 -1.7,2 0.1,0.9 0.8,1.6 1.7,1.7 z m 1.5,5.9 c 1.2,0 2.1,-0.9 2.1,-2.1 0,-1.2 -0.9,-2.1 -2.1,-2.1 -1.2,0 -2.1,0.9 -2.1,2.1 0,0 0,0 0,0 0,1.2 0.9,2.1 2.1,2.1 z m -7.2,1.6 c 1,0 1.9,-0.8 1.9,-1.8 0,-1 -0.8,-1.9 -1.8,-1.9 -1,0 -1.9,0.8 -1.9,1.8 0,0 0,0 0,0 v 0 c -0.1,1 0.7,1.9 1.8,1.9 -0.1,0 -0.1,0 0,0 z M 4,42 c 2.2,0 4,-1.8 4,-4 0,-2.2 -1.8,-4 -4,-4 -2.2,0 -4,1.8 -4,4 0,2.2 1.8,4 4,4 z m 9,-7.1 c 1.9,0 3.5,-1.5 3.5,-3.4 0,-1.9 -1.5,-3.5 -3.4,-3.5 -1.9,0 -3.5,1.5 -3.5,3.4 0,0 0,0 0,0.1 v 0 c 0,1.8 1.5,3.4 3.4,3.4 z M 9.4,26.1 c 1.9,0 3.5,-1.5 3.5,-3.4 0,-1.9 -1.5,-3.5 -3.4,-3.5 -1.9,0 -3.5,1.5 -3.5,3.4 0,0 0,0 0,0 v 0 c 0,1.9 1.5,3.5 3.4,3.5 0,0 0,0 0,0 z m 8.7,-4.2 c 1.6,0 2.9,-1.3 2.9,-2.9 0,-1.6 -1.3,-2.9 -2.9,-2.9 -1.6,0 -2.9,1.3 -2.9,2.9 0,1.6 1.3,2.9 2.9,2.9 z m 3.5,8.8 c 1.6,0 2.9,-1.3 2.9,-2.9 0,-1.6 -1.3,-2.9 -2.9,-2.9 -1.6,0 -2.9,1.3 -2.9,2.9 0,1.6 1.3,2.9 2.9,2.9 z m 7.9,-1.9 c 1.4,0 2.5,-1.1 2.5,-2.5 0,0 0,0 0,0 v 0 c 0,-1.4 -1.1,-2.5 -2.4,-2.5 -1.4,0 -2.5,1.1 -2.5,2.4 v 0 0.1 0 c -0.1,1.4 1,2.5 2.4,2.5 z m 6.8,0 c 1.2,0 2.1,-1 2.1,-2.1 0,-1.2 -1,-2.1 -2.1,-2.1 -1.1,0 -2.1,1 -2.1,2.1 v 0 c -0.1,1.2 0.9,2.1 2.1,2.1 z m 5.6,1.3 c 1,0 1.8,-0.8 1.8,-1.8 0,-1 -0.8,-1.8 -1.8,-1.8 -1,0 -1.8,0.8 -1.8,1.8 0,0 0,0 0,0 0,1 0.8,1.9 1.8,1.8 z m 0.7,-6.6 c 0.9,0 1.6,-0.7 1.6,-1.6 0,0 0,0 0,0 0,-0.9 -0.7,-1.6 -1.6,-1.6 -0.9,0 -1.6,0.7 -1.6,1.6 0.1,0.9 0.8,1.6 1.6,1.6 z m -4.3,-2.1 c 1,0 1.8,-0.8 1.8,-1.8 0,-1 -0.8,-1.8 -1.8,-1.8 -1,0 -1.8,0.8 -1.8,1.8 0,1 0.8,1.8 1.8,1.8 z M 32.8,20 c 1.2,0 2.1,-0.9 2.2,-2.1 0,-1.2 -0.9,-2.1 -2.1,-2.2 -1.2,0 -2.1,0.9 -2.2,2.1 0,0 0,0 0,0 0,1.3 0.9,2.2 2.1,2.2 0,0 0,0 0,0 z M 26,20 c 1.4,0 2.5,-1.1 2.5,-2.5 0,-1.4 -1.1,-2.5 -2.5,-2.5 -1.4,0 -2.5,1.1 -2.5,2.5 0,0 0,0 0,0 0,1.4 1.1,2.5 2.5,2.5 -0.1,0.1 -0.1,0.1 0,0 z m -9.2,-6.2 c 1.6,0 2.9,-1.2 3,-2.8 0,-1.6 -1.2,-2.9 -2.8,-3 -1.6,0 -2.9,1.2 -3,2.8 0,0 0,0.1 0,0.1 0,1.6 1.2,2.9 2.8,2.9 0,0 0,0 0,0 z m 7.9,-1.7 c 1.4,0 2.5,-1.1 2.5,-2.5 0,-1.4 -1.1,-2.5 -2.5,-2.5 -1.4,0 -2.5,1.1 -2.5,2.5 0,0 0,0 0,0 0,1.4 1.1,2.5 2.5,2.5 0,0 0,0 0,0 z m 6.8,0 c 1.2,0 2.2,-1 2.2,-2.2 0,-1.2 -1,-2.2 -2.2,-2.2 -1.2,0 -2.1,0.9 -2.1,2.1 0,0 0,0 0,0.1 v 0 c 0,1.3 0.9,2.2 2.1,2.2 z m 5.6,1.3 c 1,0 1.8,-0.8 1.8,-1.8 0,-1 -0.8,-1.8 -1.8,-1.8 -1,0 -1.8,0.8 -1.8,1.8 0,1 0.8,1.8 1.8,1.8 0,0 0,0 0,0 z m 4.3,2.2 c 0.9,0 1.6,-0.7 1.6,-1.6 0,-0.9 -0.7,-1.6 -1.6,-1.6 -0.9,0 -1.6,0.7 -1.6,1.6 0,0 0,0 0,0 0,0.9 0.7,1.6 1.6,1.6 0,0 0,0 0,0 z m 3.1,2.6 c 0.7,0 1.3,-0.6 1.3,-1.3 v 0 c 0,-0.7 -0.6,-1.3 -1.3,-1.3 v 0 c -0.7,0 -1.3,0.6 -1.3,1.3 v 0 c 0,0.7 0.6,1.2 1.3,1.3 z"
   id="path4" />
	</g>
</g>
</svg>
