<?xml version="1.0" encoding="UTF-8" standalone="no"?>
<svg
   xmlns:dc="http://purl.org/dc/elements/1.1/"
   xmlns:cc="http://creativecommons.org/ns#"
   xmlns:rdf="http://www.w3.org/1999/02/22-rdf-syntax-ns#"
   xmlns:svg="http://www.w3.org/2000/svg"
   xmlns="http://www.w3.org/2000/svg"
   xmlns:sodipodi="http://sodipodi.sourceforge.net/DTD/sodipodi-0.dtd"
   xmlns:inkscape="http://www.inkscape.org/namespaces/inkscape"
   viewBox="0 0 2894.2478 3016.2699"
   version="1.1"
   id="svg8"
   sodipodi:docname="iota-logo-black.svg"
   inkscape:version="0.92.3 (2405546, 2018-03-11)"
   width="2894.2478"
   height="3016.2698">
  <metadata
     id="metadata14">
    <rdf:RDF>
      <cc:Work
         rdf:about="">
        <dc:format>image/svg+xml</dc:format>
        <dc:type
           rdf:resource="http://purl.org/dc/dcmitype/StillImage" />
        <dc:title>i</dc:title>
      </cc:Work>
    </rdf:RDF>
  </metadata>
  <defs
     id="defs12" />
  <sodipodi:namedview
     pagecolor="#ffffff"
     bordercolor="#666666"
     borderopacity="1"
     objecttolerance="10"
     gridtolerance="10"
     guidetolerance="10"
     inkscape:pageopacity="0"
     inkscape:pageshadow="2"
     inkscape:window-width="1920"
     inkscape:window-height="1017"
     id="namedview10"
     showgrid="false"
     inkscape:zoom="0.097524695"
     inkscape:cx="1411.6088"
     inkscape:cy="1516.6029"
     inkscape:window-x="1912"
     inkscape:window-y="-8"
     inkscape:window-maximized="1"
     inkscape:current-layer="svg8" />
  <title
     id="title2">i</title>
  <ellipse
     style="opacity:1;fill:#ffffff;fill-opacity:1;stroke:#010200;stroke-width:108.08999634;stroke-miterlimit:4;stroke-dasharray:none;stroke-opacity:1"
     id="path821"
     cx="1447.1239"
     cy="1508.1349"
     rx="1393.0789"
     ry="1454.0898" />
  <g
     id="Layer_2"
     data-name="Layer 2"
     transform="translate(161.85884,289.71687)">
    <g
       id="Layer_1-2"
       data-name="Layer 1">
      <path
         d="m 1817.8,280.7 c 76.3,0 138.3,-63 138.3,-140.4 0,-77.4 -62,-140.3 -138.3,-140.3 -76.3,0.4 -138.3,63.3 -138.3,140.7 0,77.4 62,140 138.3,140 z m 40.8,364.8 a 118,118 0 0 0 117.1,-118.89 v 0 c 0,-65.4 -52.4,-118.9 -117.1,-118.9 -64.7,0 -117.1,53.1 -117.1,118.9 0,65.8 52.3,118.89 117.1,118.89 z m 321.5,46.5 c 64.4,0 116.8,-53.1 116.8,-118.6 0,-65.5 -52.4,-118.6 -116.8,-118.6 -64.4,0 -116.8,53.1 -116.8,118.6 0,65.5 52.5,118.6 116.8,118.6 z m -38.6,312.1 c 55.2,0 99.9,-45.4 99.9,-101.3 0,-55.9 -44.7,-101.3 -99.9,-101.3 -55.2,0 -99.9,45.4 -99.9,101.3 0,55.9 44.7,101.3 99.9,101.3 z m 257.4,101.2 c 55.6,0 100.6,-45.7 100.6,-102 0,-56.3 -45,-102 -100.6,-102 a 101.3,101.3 0 0 0 -100.6,102 v 0 c 0,56.3 45.1,102 100.6,102 z M 1818,961.9 a 103,103 0 0 0 102.4,-103.6 v 0 -0.2 c 0,-57.3 -45.7,-103.8 -102.4,-103.8 -56.7,0 -102.4,46.4 -102.4,103.8 0,57 45.8,103.8 102.4,103.8 z m -92.8,248.3 c 47.5,0 85.8,-39 85.8,-86.9 a 86.2,86.2 0 0 0 -85.49,-86.9 h -0.31 c -47.5,0 -85.8,39 -85.8,86.9 0,47.9 38.3,86.9 85.8,86.9 z m 322,43.9 a 85.69,85.69 0 0 0 85.1,-86.28 v 0 -0.21 c 0,-47.8 -38,-86.5 -85.1,-86.5 -47.1,0 -85.1,38.7 -85.1,86.5 a 85.39,85.39 0 0 0 84.28,86.49 z m 256.7,100.8 c 47.5,0 85.8,-39 85.8,-87.2 0,-48.2 -38.3,-87.2 -85.8,-87.2 -47.5,0 -85.8,39 -85.8,87.2 a 86.3,86.3 0 0 0 85.39,87.2 z m -126.8,188.4 c 40.1,0 72.5,-33.1 72.5,-73.5 0,-40.4 -32.4,-73.5 -72.5,-73.5 -40.1,0 -72.5,33.1 -72.5,73.5 0,40.4 32.4,73.5 72.5,73.5 z m -257.9,-99.2 c 40.8,0 74.2,-33.8 74.2,-75.3 0,-41.5 -33.1,-75.3 -74.2,-75.3 -41.1,0 -74.2,33.8 -74.2,75.3 0,41.5 33.4,75.3 74.2,75.3 z m -321.6,-46 a 74.61,74.61 0 0 0 0.1,-149.2 h -0.1 a 74.61,74.61 0 0 0 -0.1,149.2 z m 178.8,177 c 35.5,0 64,-29.2 64,-64.7 a 64.1,64.1 0 0 0 -63.49,-64.7 h -0.51 c -35.5,0 -64,29.2 -64,64.7 a 64,64 0 0 0 63.29,64.7 z m 257.8,100.9 c 35.5,0 64.7,-29.2 64.7,-65.4 0,-36.2 -28.8,-65.4 -64.7,-65.4 a 65.4,65.4 0 0 0 0,130.8 z m -145.2,75.7 c 28.1,0 51,-23.2 51,-51.7 a 51.4,51.4 0 0 0 -51,-51.7 c -28.1,0 -51,23.2 -51,51.7 a 51.6,51.6 0 0 0 51,51.7 z m -137.6,40.6 a 46.39,46.39 0 0 0 46.1,-46.68 v -0.12 c 0,-26 -20.8,-46.8 -46.1,-46.8 a 46.39,46.39 0 0 0 -46.1,46.68 v 0.12 a 46,46 0 0 0 45.19,46.79 z m -120.5,-134.6 c 30.3,0 54.9,-25 54.9,-55.6 0,-30.6 -24.6,-55.6 -54.9,-55.6 -30.3,0 -54.9,25 -54.9,55.6 a 55.49,55.49 0 0 0 54.9,55.6 z m -176.8,-127.5 c 35.2,0 64,-28.8 64,-64.7 0,-35.9 -28.5,-64.7 -64,-64.7 -35.2,0 -64,28.8 -64,64.7 a 64.6,64.6 0 0 0 64,64.7 z m 524.3,810.6 c 76,0 137.6,-62.6 137.6,-139.7 0,-77.1 -61.6,-139.7 -137.6,-139.7 -76,0 -137.6,62.6 -137.6,139.7 0,77.1 61.6,139.7 137.6,139.7 z M 1628.9,2164 c 63.3,0 114.7,-52.1 114.7,-116.4 0,-64.3 -51.4,-116.4 -114.7,-116.4 -63.3,0 -114.7,52.1 -114.7,116.4 0,64.3 51.3,116.4 114.7,116.4 z m -199.7,255.9 c 64,0 115.7,-52.4 115.7,-117.5 0,-64.7 -51.7,-117.5 -115.7,-117.5 -64,0 -115.7,52.4 -115.7,117.5 a 116.6,116.6 0 0 0 115.69,117.5 z m -60.1,-471.5 a 101,101 0 0 0 100.3,-101.7 v 0 A 101,101 0 0 0 1369.1,1745 v 0 a 101,101 0 0 0 -100.3,101.7 v 0 c 0.1,56 45.1,101.7 100.3,101.7 z m -199.2,259.4 c 55.2,0 99.9,-45.4 99.9,-101.3 0,-55.9 -44.7,-101.3 -99.9,-101.3 -55.2,0 -99.9,45.4 -99.9,101.3 a 100.31,100.31 0 0 0 99.29,101.3 z m -214.7,176 c 55.2,0 99.6,-45.4 99.6,-101 0,-55.9 -44.7,-101 -99.6,-101 -55.2,0 -99.6,45.4 -99.6,101 0,55.6 44.7,101 99.6,101 z M 776.5,2154.7 a 85.89,85.89 0 0 0 85.1,-86.2 c 0,-47.5 -38,-86.2 -85.1,-86.2 a 86.21,86.21 0 0 0 0,172.4 z m 215.1,-176.8 a 85.7,85.7 0 0 0 85.1,-86.2 c 0,-47.8 -38,-86.2 -85.1,-86.2 a 86.21,86.21 0 0 0 -0.3,172.4 z m 200.7,-259.3 a 85.69,85.69 0 0 0 85.1,-86.28 v 0 -0.21 c 0,-47.8 -38,-86.5 -85.1,-86.5 a 85.69,85.69 0 0 0 -85.1,86.28 v 0 0.21 c 0,47.8 38,86.5 85.1,86.5 z m -307,35.7 c 40.8,0 73.9,-33.4 73.9,-74.9 0,-41.5 -33.1,-74.9 -73.9,-74.9 -40.8,0 -73.9,33.4 -73.9,74.9 0,41.5 33.1,74.9 73.9,74.9 z m -214,176.1 a 73.6,73.6 0 0 0 73.2,-74 v 0 -0.2 A 73.5,73.5 0 0 0 671.71,1782 h -0.41 a 73.6,73.6 0 0 0 -73.2,74 v 0 0.2 a 73.7,73.7 0 0 0 73.2,74.2 z M 622.1,1724 a 63.8,63.8 0 0 0 63.3,-64 c 0,-35.5 -28.5,-64 -63.3,-64 -34.8,0 -63.3,28.8 -63.3,64 0,35.5 28.5,64 63.3,64 z m -1.8,-181.1 a 54.7,54.7 0 0 0 54.2,-55.2 v 0 c 0,-30.3 -24.3,-55.2 -54.2,-55.2 -29.9,0 -54.2,24.6 -54.2,55.2 0,30.6 24.3,55.2 54.2,55.2 z m 29.8,-150.6 c 25.7,0 46.1,-21.1 46.1,-46.8 0,-25.7 -20.8,-46.8 -46.1,-46.8 -25.7,0 -46.1,21.1 -46.1,46.8 0,25.7 20.4,46.8 46.1,46.8 z m 184.5,-25.2 c 30.3,0 54.9,-25 54.9,-55.6 0,-30.6 -24.6,-55.6 -54.9,-55.6 -30.3,0 -54.9,25 -54.9,55.6 a 55.4,55.4 0 0 0 54.9,55.6 z m 202.5,-78.9 c 35.2,0 64,-29.2 64,-64.7 a 64.1,64.1 0 0 0 -63.49,-64.7 h -0.51 c -35.2,0 -64,29.2 -64,64.7 a 64.2,64.2 0 0 0 63.7,64.7 z m 48.2,205.4 a 72.66,72.66 0 1 0 -0.3,0 z m -248.1,54.7 c 35.2,0 63.3,-28.8 63.3,-64.4 0,-35.6 -28.5,-64.4 -63.3,-64.4 a 63.69,63.69 0 0 0 -63.3,64.09 v 0.31 a 63.49,63.49 0 0 0 62.58,64.39 h 0.72 z m -700,-95.5 c 75.6,0 137.2,-62.3 137.2,-139 0,-76.7 -61.6,-139 -137.2,-139 -75.6,0 -137.2,62.4 -137.2,139.1 0,76.7 61.6,138.9 137.2,138.9 z m 311.4,-248.2 c 65.1,0 117.5,-53.5 117.5,-119.3 0,-65.8 -52.8,-119.3 -117.5,-119.3 a 118.3,118.3 0 0 0 -117.5,119.09 v 0.21 c 0,66.2 52.8,119.3 117.5,119.3 z m -121.5,-306 c 64.7,0 116.8,-53.1 116.8,-118.6 0,-65.5 -52.4,-118.6 -116.8,-118.6 A 117.59,117.59 0 0 0 210.3,779.79 V 780 a 117.41,117.41 0 0 0 116.19,118.6 z m 300.2,-145 c 55.2,0 100.3,-45.4 100.3,-101.7 0,-56.3 -45,-101.7 -100.3,-101.7 -55.3,0 -100.3,45.4 -100.3,101.7 0,56.3 45.1,101.7 100.3,101.7 z M 750,1058.9 c 55.6,0 100.6,-45.7 100.6,-102 0,-56.3 -45,-102 -100.6,-102 -55.6,0 -100.6,45.7 -100.6,102 0,56.3 45,102 100.6,102 z m 273.2,-63.4 a 86.21,86.21 0 0 0 85.5,-86.89 v 0 a 85.510035,85.510035 0 1 0 -171,-2.62 c 0,0.88 0,1.75 0,2.62 v 0 a 85.91,85.91 0 0 0 84.89,86.9 z m 236,0.8 c 40.8,0 73.9,-33.4 73.9,-74.6 0,-41.2 -33.1,-74.6 -73.9,-74.6 a 74.6,74.6 0 0 0 0,149.2 z m 195,44.9 c 34.1,0 62.3,-28.1 62.3,-63 0,-34.9 -27.8,-63 -62.3,-63 a 62.79,62.79 0 0 0 -62.3,63 c 0.4,34.5 28.1,63 62.3,63 z m 25.4,-229.8 a 54.59,54.59 0 0 0 54.2,-54.9 c 0,-30.3 -24.3,-54.9 -54.2,-54.9 -29.9,0 -54.2,24.6 -54.2,54.9 a 54.59,54.59 0 0 0 54.2,54.9 z m -150,-75.2 a 62.46,62.46 0 1 0 -0.31,0 z m -192.7,-45.6 a 73.8,73.8 0 0 0 73.2,-74.2 c 0,-41.2 -32.7,-74.2 -73.2,-74.2 -40.5,0 -73.2,33.4 -73.2,74.2 a 73.6,73.6 0 0 0 73,74.2 z m -235.6,0.3 c 47.5,0 85.8,-39 85.8,-86.9 0,-47.9 -38.3,-86.9 -85.8,-86.9 -47.5,0 -85.8,39 -85.8,86.9 a 86.6,86.6 0 0 0 85.8,86.9 z M 584,473.6 c 53.8,0 97.1,-44 97.1,-98.5 0,-54.5 -43.6,-98.5 -97.1,-98.5 -53.8,0 -97.1,44 -97.1,98.5 0,54.5 43.6,98.5 97.1,98.5 z m 273.1,-59.7 c 47.5,0 85.8,-39 85.8,-86.9 0,-47.9 -38.3,-86.9 -85.8,-86.9 -47.5,0 -85.8,39 -85.8,86.9 0,47.9 38.3,86.9 85.8,86.9 z M 1093,415 c 40.8,0 73.9,-33.4 73.9,-74.9 0,-41.5 -33.1,-74.9 -73.9,-74.9 a 74.3,74.3 0 0 0 -73.9,74.7 v 0 0.2 A 74.59,74.59 0 0 0 1093,415 Z m 193.6,44.6 c 34.5,0 62.3,-28.1 62.3,-63 0,-34.9 -27.8,-63 -62.3,-63 a 63,63 0 0 0 0,126 z m 148.7,77.2 a 56,56 0 0 0 55.6,-56.3 c 0,-31.3 -25,-56.3 -55.6,-56.3 -30.6,0 -55.6,25.3 -55.6,56.3 0,31 25,56.3 55.6,56.3 z m 109.1,88.6 a 46,46 0 0 0 45.7,-46.3 v 0 -0.1 a 46,46 0 0 0 -45.6,-46.4 h -0.1 a 46,46 0 0 0 -45.7,46.3 v 0 0.1 a 45.69,45.69 0 0 0 45,46.39 h 0.72 z"
         id="path4"
         inkscape:connector-curvature="0" />
    </g>
  </g>
</svg>
